PathFileType	4	(X/Y/Z)	Patient4_TMGait_0pt5_02_left_23.trc.trc
DataRate	CameraRate	NumFrames	NumMarkers	Units	OrigDataRate	OrigDataStartFrame	OrigNumFrames
76.502732240437	76.502732240437	6	33	mm	76.502732240437	106	       141
Frame#	Time	Sacral			L.Shoulder			Chest			R.Shoulder			Neck			R.ASIS			L.ASIS			R.Thigh.Superior			R.Thigh.Lateral			R.Thigh.Inferior			R.Patella			L.Thigh.Superior			L.Thigh.Lateral			L.Thigh.Inferior			L.Patella			L.Shank.Superior			L.Shank.Lateral			L.Shank.Inferior			R.Shank.Superior			R.Shank.Lateral			R.Shank.Inferior			R.Heel			R.Midfoot.Superior			R.Midfoot.Lateral			R.Toe			L.Heel			L.Midfoot.Lateral			L.Midfoot.Superior			L.Toe			L.Elbow			L.Wrist			R.Elbow			R.Wrist			
		X1	Y1	Z1	X2	Y2	Z2	X3	Y3	Z3	X4	Y4	Z4	X5	Y5	Z5	X6	Y6	Z6	X7	Y7	Z7	X8	Y8	Z8	X9	Y9	Z9	X10	Y10	Z10	X11	Y11	Z11	X12	Y12	Z12	X13	Y13	Z13	X14	Y14	Z14	X15	Y15	Z15	X16	Y16	Z16	X17	Y17	Z17	X18	Y18	Z18	X19	Y19	Z19	X20	Y20	Z20	X21	Y21	Z21	X22	Y22	Z22	X23	Y23	Z23	X24	Y24	Z24	X25	Y25	Z25	X26	Y26	Z26	X27	Y27	Z27	X28	Y28	Z28	X29	Y29	Z29	X30	Y30	Z30	X31	Y31	Z31	X32	Y32	Z32	X33	Y33	Z33	

106	30.652500000000	495.912129301586	1023.335788213176	523.206223040679	695.552864156963	1440.881525592401	342.764612862136	799.020449058355	1361.040128571490	498.696497305338	729.087042673195	1441.110270408128	676.857090442898	705.987468011449	1499.471844734780	494.797344182490	721.836334658360	941.086287166965	632.588656487954	701.410478581960	968.768367471605	360.116271066871	752.798359529922	740.294867981920	603.071448553513	665.525240559449	636.660221659022	659.176870497298	741.374709601013	581.196275789866	579.133390632457	737.931849863619	493.592293566124	583.285761370308	776.053800915881	784.642860543496	383.386779006275	725.666690958880	660.998738580788	304.957441797040	826.214445285199	594.783065026704	364.607368387401	841.287589021036	510.663272937142	356.725729318948	789.105177683181	439.589713519891	347.812014111485	663.467638672063	365.149490305630	297.193526406315	683.747451024472	236.415121742955	350.711073604050	707.959906017556	406.883322059673	587.864357389836	632.550107560609	304.609543112088	645.501262595526	672.053655100327	209.543623134082	581.424831096300	530.829705911497	48.258505689272	546.330789797405	704.076813870070	97.507431314003	584.193832904314	613.771114807773	38.411515733527	620.685063322297	821.957929491266	38.211105733132	612.317823298625	516.688928239856	121.857183909932	386.879231692476	582.785123663328	99.047053342214	303.700086109949	681.807089524624	133.752120310606	325.253165907119	786.072595984140	49.543024748380	290.207250431413	609.733539745737	1094.080206451439	234.164822472075	647.477042364384	835.121512552289	220.334028336144	738.088775006869	1108.947938291931	821.156173385311	959.791068376606	979.397865557633	796.520032363518	
107	30.665571428571	494.591639791802	1023.540525433339	523.713374632088	694.366744189587	1440.897676195659	343.109173395696	798.393163713947	1360.629299258762	498.370781910747	729.618817092370	1440.650736031573	677.007090538003	705.372091837172	1499.176180662091	495.217493191125	720.613175727907	940.844222818754	632.417444245645	699.547689025753	968.568086258431	359.939509457274	749.525287563548	739.431099312844	602.541521910623	661.623134579201	636.358651644933	659.145860801935	736.562339136485	580.302296169493	578.806052109063	732.174350057979	493.076437106178	582.844020043980	774.205857936658	785.283806381122	383.302559494221	724.642189520514	661.371521360762	304.533524498401	825.178251946693	595.841738047749	364.799333891661	842.035323890978	513.379788237555	356.733018940283	793.394139133450	441.346390273578	347.288233156767	672.394222854414	360.061811201578	296.187028338009	700.221515465771	232.271400616982	349.345249416999	702.155002513362	406.390913817146	587.600948487941	626.534887777418	304.328512246508	645.411404566783	665.745325295561	209.195729621451	581.284331796805	524.122619088217	47.891804071140	546.363504421281	697.403293443865	97.446538899256	584.162540022407	607.085490447984	38.245882802880	620.762210506910	815.297969787888	38.294049531772	612.316596216957	540.230001339061	107.833834643726	385.123931077788	607.658246535206	89.247069658628	301.935499410606	704.441595986685	129.635744881571	323.653102597232	813.563465445176	51.872382273275	288.513949383185	603.337920799607	1095.593605080294	234.475734347531	631.294220073856	835.596056758431	220.982341356635	747.572479075918	1109.182401000134	820.997544978960	974.682448893565	990.392984200945	793.859681182473	
108	30.678642857143	493.320594027776	1023.487794404680	524.123376361230	693.130128076630	1440.752909388315	343.337973015819	797.706282577462	1360.051975435768	497.930333187603	729.990373486418	1439.931060903229	677.034910655716	704.652722954688	1498.674892481141	495.546190158574	719.456544183415	940.439193342040	632.097413224636	697.741944370358	968.076195159050	359.605839260433	746.289123830814	738.375612560238	601.966130185776	657.710297193377	635.885577118098	659.044841066876	731.706636641443	579.242856864938	578.401201356752	726.368225235990	492.397973687139	582.300631821244	772.050189395849	785.384571456010	383.217124088080	723.318197800685	661.318802256270	303.988796604032	823.668182146377	596.348980348385	365.066022693601	842.277192311233	515.676298165064	356.808666201524	797.243057418371	442.917042570920	346.848016613868	681.418222113652	354.956740981130	295.078557715428	716.656781474481	228.586963018860	348.091266164508	696.278205499991	405.721622791719	587.243297030193	620.470450488708	303.869068264797	645.245143529668	659.357445335228	208.680209780641	581.056594662015	517.366711709723	47.345525463229	546.377301728156	690.646068421395	97.348657258230	584.072961835058	600.353082831584	38.007151272109	620.837405381549	808.606399170351	38.432417238977	612.294088665259	564.258693632577	94.705453118842	383.252068274525	632.993145550802	80.253557388784	300.281997236970	727.153379476728	126.233213440969	322.324769895640	840.820506215473	55.071303000809	287.556049704791	596.871329088285	1097.107397814986	234.500461786239	615.960302225968	836.488915094131	221.648386903395	756.765642269278	1109.355993488517	820.485801644674	988.702860820201	1001.604808098334	790.686001149212	
109	30.691714285714	492.101421401435	1023.179565963642	524.438293859673	691.848200582614	1440.435161977955	343.432332978150	796.968689687085	1359.316490617955	497.367768059016	730.202414717550	1438.977263652239	676.926266322163	703.848939550826	1497.976454914964	495.757921541195	718.382938877278	939.880661293850	631.643092488297	696.002446820127	967.298334058153	359.129304306603	743.121207554493	737.149648356191	601.341614629164	653.838968078162	635.257946618149	658.880253307475	726.856794778662	578.039019098318	577.917423236467	720.578693886031	491.561177519772	581.665815562716	769.650591050015	784.978763717774	383.138611771269	721.794980572099	660.885360280149	303.320874531769	821.810934525163	596.354208960224	365.374123924270	842.108042413768	517.554450698614	356.937771739139	800.684175283166	444.317918221468	346.499021708457	690.477541915299	349.987425781652	293.903384875227	732.836045760289	225.498241840493	347.004072290259	690.378267054456	404.887724935860	586.801366546714	614.395643526719	303.249111872813	645.011580169517	652.911245871725	208.012630053387	580.747178640976	510.567997407609	46.656432214180	546.376164960834	683.806380747493	97.218447327651	583.929588473438	593.578609225419	37.715037389730	620.913257127872	801.885669418660	38.625652376399	612.251051717943	588.401995542933	82.780128371062	381.358062043626	658.411774507548	72.304529236756	298.822706253550	749.614065081079	123.684099875809	321.324428904197	867.450134879478	59.175107323618	287.374727251836	590.378152590193	1098.579245644800	234.285235542872	601.514619717814	837.656324549791	222.326074314992	765.632295089767	1109.458846293684	819.613697329817	1001.787127681034	1012.962699097058	787.011865302457	
110	30.704785714286	490.939255556717	1022.633321123878	524.656042150710	690.525710156788	1439.945735887924	343.371150217634	796.190635617526	1358.445868308455	496.672830624993	730.265180199226	1437.837471780008	676.663903371089	702.982243080545	1497.105948498142	495.823072282549	717.408931458386	939.193762781852	631.072701373205	694.340352036863	966.260210167033	358.525023315778	740.058398724759	735.794442520198	600.656667137254	650.077679176288	634.506642183549	658.659026658701	722.078939505201	576.727497729265	577.353956583981	714.888252835692	490.584447813699	580.956704051201	767.095081912264	784.127883470834	383.066008042110	720.167651574615	660.131163407144	302.540893061370	819.735737103790	595.921726886614	365.680802469369	841.614692665110	519.023468690887	357.100867671737	803.742863803872	445.561468288991	346.237887982196	699.460469678211	345.278464158467	292.718024492850	748.529941986866	223.080053253606	346.125649239366	684.522342548877	403.915753638829	586.291188956044	608.363562762258	302.503117590919	644.726001964467	646.440115766282	207.223377707538	580.369335404953	503.738162574028	45.878661887712	546.365309290240	676.894867074342	97.064043480330	583.741716962450	586.771971671590	37.395423159355	620.991509307927	795.141555166454	38.867562923348	612.189435210657	612.255778492058	72.267023133228	379.561682557108	683.488596678005	65.541393904622	297.638473185562	771.480056005335	122.039527736864	320.678794519118	893.059991875878	64.115726536848	287.929646736355	583.916347567974	1099.972115456665	233.880936978824	587.974778624034	838.971055705200	223.006988099519	774.129667459962	1109.496923302650	818.370783148289	1013.872080358123	1024.393151149557	782.854698569418	
111	30.717857142857	489.845136540297	1021.880863639337	524.771254218914	689.167501417133	1439.300370453697	343.131765894935	795.383103397402	1357.477149832620	495.832387412467	730.196477334859	1436.578147737059	676.227909285242	702.074585578650	1496.103525240763	495.709312011904	716.551650977200	938.417133727811	630.406158238126	692.770327433173	965.006335080635	357.807917040092	737.144291533581	734.366035394732	599.896003684991	646.506666387884	633.671842707503	658.386475417755	717.453270560212	575.355549920959	576.711232714905	709.390963716362	489.497313852637	580.194474837185	764.492010647693	782.917627198634	382.988785257405	718.515696051804	659.123481143647	301.676827220026	817.564139026868	595.124897877162	365.939163641583	840.873068714486	520.099072467472	357.276020141746	806.434443994365	446.653526272102	346.051042099637	708.206767149973	340.920730744115	291.599318669183	763.502298830578	221.344122014797	345.481780251985	678.790309843205	402.842101274778	585.731069772615	602.437722921966	301.678338010596	644.407118526035	639.987273920308	206.353522062131	579.941897826809	496.892907709510	45.076453912169	546.350158636361	669.931398469002	96.896139808836	583.522198560670	579.947393372068	37.076058303898	621.072130032615	788.382588052826	39.146260254903	612.112673560841	635.398225218860	63.276126100417	378.000809564144	707.761040559235	60.010349977661	296.800727477088	792.400757464025	121.263360753629	320.382806255651	917.263531029339	69.723093716729	289.095079710605	577.554621921224	1101.256499037688	233.338910812410	575.344600661309	840.328793569253	223.680262113713	782.206605668027	1109.491102709166	816.745692110438	1024.897367084194	1035.819505481188	778.236478330385	
